<svg xmlns="http://www.w3.org/2000/svg" viewBox="0 0 192 192">
  <!-- Full bleed background for maskable (no rounded corners — OS applies the mask) -->
  <rect width="192" height="192" fill="#0d0f12"/>
  <circle cx="96" cy="96" r="52" fill="none" stroke="#2a2f38" stroke-width="6"/>
  <circle cx="96" cy="96" r="52" fill="none" stroke="#e8eaf0" stroke-width="3"/>
  <path d="M 58 76 C 68 80, 68 88, 62 96 C 56 104, 56 112, 66 116"
        stroke="#e24b4a" stroke-width="3.5" fill="none" stroke-linecap="round"/>
  <path d="M 134 76 C 124 80, 124 88, 130 96 C 136 104, 136 112, 126 116"
        stroke="#e24b4a" stroke-width="3.5" fill="none" stroke-linecap="round"/>
  <line x1="58" y1="83" x2="65" y2="85" stroke="#e24b4a" stroke-width="2.5" stroke-linecap="round"/>
  <line x1="55" y1="92" x2="62" y2="93" stroke="#e24b4a" stroke-width="2.5" stroke-linecap="round"/>
  <line x1="57" y1="101" x2="64" y2="100" stroke="#e24b4a" stroke-width="2.5" stroke-linecap="round"/>
  <line x1="63" y1="110" x2="69" y2="107" stroke="#e24b4a" stroke-width="2.5" stroke-linecap="round"/>
  <line x1="134" y1="83" x2="127" y2="85" stroke="#e24b4a" stroke-width="2.5" stroke-linecap="round"/>
  <line x1="137" y1="92" x2="130" y2="93" stroke="#e24b4a" stroke-width="2.5" stroke-linecap="round"/>
  <line x1="135" y1="101" x2="128" y2="100" stroke="#e24b4a" stroke-width="2.5" stroke-linecap="round"/>
  <line x1="129" y1="110" x2="123" y2="107" stroke="#e24b4a" stroke-width="2.5" stroke-linecap="round"/>
</svg>
